# xmcd CD database file
#
# Track frame offsets:
#	150
#	21122
#	33292
#	50060
#	66417
#	82572
#	99690
#	126957
#	145292
#	158165
#	173225
#	184075
#
# Disc length: 2651 seconds
#
# Revision: 2
# Processed by: cddbd v1.4PL0 Copyright (c) Steve Scherf et al.
# Submitted via: Feurio! 1.66 - http://www.feurio.com
#
DISCID=9f0a590c
DTITLE=Lex Vandyke - Guitar Greatest [CD 2 of 3)
DYEAR=1900
DGENRE=Blues
TTITLE0=The Healer (Hooker)
TTITLE1=Jin-Go-Lo-Ba (Santana)
TTITLE2=Lay Down Sally (Clapton/Levy/Terry)
TTITLE3=I Need Your Love So Bad (John)
TTITLE4=I'm In the Mood (Hooker/Besman)
TTITLE5=Money for Nothing (Knopfler)
TTITLE6=Lex Vandyke  - Layla (Clapton/Gordon)
TTITLE7=Lex Vandyke  - Right Next Door (Walker)
TTITLE8=Lex Vandyke  - Man of the World (Green)
TTITLE9=Lex Vandyke  - Black Magic Woman (Green)
TTITLE10=Lex Vandyke  - Strange Brew (Clapton/Pappalaradi/Collins)
TTITLE11=Lex Vandyke  - A Salty Dog (Reid/Brooker)
EXTD=
EXTT0=
EXTT1=
EXTT2=
EXTT3=
EXTT4=
EXTT5=
EXTT6=
EXTT7=
EXTT8=
EXTT9=
EXTT10=
EXTT11=
PLAYORDER=
